<svg version="1.1" id="Layer_1" xmlns="http://www.w3.org/2000/svg" xmlns:xlink="http://www.w3.org/1999/xlink" x="0px" y="0px"
	 viewBox="0 0 832.1 232" style="enable-background:new 0 0 832.1 232;" xml:space="preserve">
<style type="text/css">
	.st0{fill-rule:evenodd;clip-rule:evenodd;fill:#F7CFDB;}
	.st1{fill:#DB6A93;}
	.st2{fill:#FFFFFF;}
</style>
<path class="st0" d="M115.6,0c31.3,0,57.7,21,65.9,49.7c28.7,8.2,49.7,34.6,49.7,65.9c0,31.3-21,57.7-49.7,65.9
	c-8.2,28.7-34.6,49.7-65.9,49.7c-31.3,0-57.7-21-65.9-49.7C21,173.3,0,146.9,0,115.6c0-31.3,21-57.7,49.7-65.9
	C57.9,21,84.3,0,115.6,0z"/>
<path class="st1" d="M136.4,96.5c-0.2,13.3-21,11.5-27.6,11.4l0.3-23.5C115.7,84.5,136.6,82.6,136.4,96.5z M141.4,133
	c-0.2,14.6-25.1,12.6-33.1,12.5l0.4-25.8C116.7,119.8,141.7,117.8,141.4,133L141.4,133z M158.4,91.5c-1.2-13.9-13.1-18.7-28.3-20.3
	l0.2-19.3l-11.8-0.2l-0.2,18.8c-3.1,0-6.2,0-9.4,0l0.1-18.9l-11.7-0.2l-0.2,19.3c-2.6,0-5.1,0-7.5,0l-16.2-0.2l-0.1,12.6
	c0,0,8.7-0.1,8.5,0.1c3.3-0.4,6.3,2,6.7,5.2l-0.2,21.9c0.4,0,0.8,0,1.2,0.1l-1.2,0L88,141.3c-0.2,2.3-2.2,4-4.5,3.8
	c0.2,0-8.5-0.1-8.5-0.1l-2.5,14l15.3,0.2l8.4,0.1l-0.2,19.5l11.7,0.1l0.2-19.2c3.1,0.1,6.3,0.2,9.4,0.2l-0.2,19.2l11.7,0.1l0.3-19.5
	c19.8-0.9,33.6-5.7,35.6-24.2c1.5-14.9-5.3-21.7-16.5-24.5C154.9,107.8,159.3,101.7,158.4,91.5L158.4,91.5z"/>
<path class="st2" d="M308.4,114.9c0-23.3,15-41.5,39-41.5c13.3,0,23.6,6.1,28.9,16.4l1.2-14h14.2v79.2c0,26-16,42.5-41.4,42.5
	c-22.5,0-37.8-12.7-40.9-33.6h15.9c2,12.2,11.1,19.2,25,19.2c15.5,0,25.7-10.1,25.7-25.8v-16.5c-5.4,9.6-16.2,15.4-29.2,15.4
	C323.2,156.1,308.4,138,308.4,114.9z M324.2,114.5c0,15.5,9.6,27.7,25.2,27.7c16,0,25.8-11.5,25.8-27.7c0-15.9-9.5-27.4-25.7-27.4
	C333.7,87.2,324.2,99.3,324.2,114.5z"/>
<path class="st2" d="M438.6,160.3c-17.7,0-28.2-10-28.2-25c0-15.2,11.3-24.7,30.7-26.2l26-2v-2.4c0-13.8-8.3-18.7-19.4-18.7
	c-13.3,0-20.9,5.9-20.9,15.9H413c0-17.2,14.2-28.5,35.5-28.5c20.4,0,34.3,10.8,34.3,33.1v51.8h-13.5l-1.7-13.3
	C463.3,154.4,452,160.3,438.6,160.3z M443.2,148c15,0,24.1-9.8,24.1-25.3v-4.4l-21.1,1.7c-14,1.4-19.8,6.8-19.8,14.9
	C426.5,143.6,432.9,148,443.2,148z"/>
<path class="st2" d="M552,75v14.5h-7.1c-15,0-24.3,9.1-24.3,25v43.7h-15.9V75.9h14.9l1,12.5c3.4-8.6,11.7-14.4,23-14.4
	C546.4,74,548.8,74.4,552,75z"/>
<path class="st2" d="M597,160.3c-24,0-38.5-17.9-38.5-43.1c0-25.3,14.7-43.9,39.2-43.9c12.7,0,23.3,5.6,28.9,15.7V34h15.7v124.3H628
	l-1.3-15C621.3,154.6,610.1,160.3,597,160.3z M600.2,145.9c16.2,0,26.2-12,26.2-29.2c0-16.9-10-29-26.2-29
	c-16.2,0-25.7,12.2-25.7,29C574.5,133.8,584,145.9,600.2,145.9z"/>
<path class="st2" d="M700.7,160.3c-24.3,0-41-17.6-41-43.2c0-25.8,16.4-43.7,40.4-43.7c23.5,0,38.8,16.2,38.8,40.7v5.9l-63.8,0.2
	c1.2,17.4,10.3,27,26,27c12.3,0,20.4-5.1,23.1-14.5h14.9C735,150.3,721.2,160.3,700.7,160.3z M700.1,86.7
	c-13.9,0-22.6,8.3-24.7,22.8H723C723,95.8,714.1,86.7,700.1,86.7z"/>
<path class="st2" d="M772.5,158.3h-15.9V75.7H771l1.7,12.7c5.2-9.5,15.7-15,27.3-15c21.8,0,31.7,13.3,31.7,34.4v50.5h-15.9v-46.9
	c0-16.7-7.8-23.5-19.9-23.5c-14.9,0-23.5,10.6-23.5,26.7V158.3z"/>
</svg>